<?xml version="1.0" encoding="UTF-8"?>
<svg width="100" height="100" viewBox="0 0 100 100" fill="none" xmlns="http://www.w3.org/2000/svg">
  <circle cx="50" cy="50" r="45" fill="#FFE082"/>
  <path d="M50 20C35.088 20 23 32.088 23 47C23 61.912 35.088 74 50 74C64.912 74 77 61.912 77 47C77 32.088 64.912 20 50 20ZM50 70C37.297 70 27 59.703 27 47C27 34.297 37.297 24 50 24C62.703 24 73 34.297 73 47C73 59.703 62.703 70 50 70Z" fill="#FFA000"/>
  <path d="M50 28C39.507 28 31 36.507 31 47C31 57.493 39.507 66 50 66C60.493 66 69 57.493 69 47C69 36.507 60.493 28 50 28ZM50 62C41.716 62 35 55.284 35 47C35 38.716 41.716 32 50 32C58.284 32 65 38.716 65 47C65 55.284 58.284 62 50 62Z" fill="#FFB300"/>
</svg>
