<?xml version="1.0" encoding="UTF-8"?>
<svg width="40" height="40" viewBox="0 0 40 40" fill="none" xmlns="http://www.w3.org/2000/svg">
  <circle cx="20" cy="20" r="20" fill="#E3F2F9"/>
  <path d="M27 15H25V13H13C11.9 13 11 13.9 11 15V23H13C13 24.66 14.34 26 16 26C17.66 26 19 24.66 19 23H23C23 24.66 24.34 26 26 26C27.66 26 29 24.66 29 23H31V19L27 15ZM16 24C15.45 24 15 23.55 15 23C15 22.45 15.45 22 16 22C16.55 22 17 22.45 17 23C17 23.55 16.55 24 16 24ZM26 24C25.45 24 25 23.55 25 23C25 22.45 25.45 22 26 22C26.55 22 27 22.45 27 23C27 23.55 26.55 24 26 24ZM25 19H13V15H25V19Z" fill="#1B365C"/>
</svg>
