<?xml version="1.0" encoding="UTF-8"?>
<svg width="40" height="40" viewBox="0 0 40 40" fill="none" xmlns="http://www.w3.org/2000/svg">
  <circle cx="20" cy="20" r="20" fill="#E3F2F9"/>
  <path d="M20 10C14.48 10 10 14.48 10 20C10 25.52 14.48 30 20 30C25.52 30 30 25.52 30 20C30 14.48 25.52 10 20 10ZM14 20C14 16.69 16.69 14 20 14C21.01 14 21.97 14.25 22.8 14.7L14.7 22.8C14.25 21.97 14 21.01 14 20ZM20 26C18.99 26 18.03 25.75 17.2 25.3L25.3 17.2C25.75 18.03 26 18.99 26 20C26 23.31 23.31 26 20 26Z" fill="#1B365C"/>
</svg>
